<svg width="642" height="116" viewBox="0 0 642 116" fill="none" xmlns="http://www.w3.org/2000/svg">
<g filter="url(#filter0_d_11_2)">
<path d="M52.8076 87.085C52.8076 87.6514 52.666 88.1045 52.3828 88.4443C52.1279 88.7842 51.6748 88.9541 51.0234 88.9541C50.6836 88.9541 50.3296 88.9116 49.9614 88.8267C49.5933 88.77 49.2393 88.6709 48.8994 88.5293C48.1914 88.3311 47.625 88.147 47.2002 87.9771C46.8037 87.8071 46.4922 87.5806 46.2656 87.2974C46.0674 87.0425 45.9399 86.7026 45.8833 86.2778C45.8267 85.853 45.7842 85.2725 45.7559 84.5361C45.5293 78.7305 45.2744 72.9814 44.9912 67.2891C44.7363 61.5684 44.3115 55.8193 43.7168 50.042C43.3203 51.9961 42.938 53.9502 42.5698 55.9043C42.2017 57.8584 41.8193 59.8408 41.4229 61.8516C41.0264 63.9473 40.644 66.0854 40.2759 68.2661C39.936 70.4468 39.3838 72.5566 38.6191 74.5957C38.3076 75.417 37.9253 76.0684 37.4722 76.5498C37.019 77.0029 36.3252 77.2295 35.3906 77.2295C34.7109 77.2295 34.1587 77.1162 33.7339 76.8896C33.3091 76.6348 32.8984 76.2666 32.502 75.7852C32.1338 75.3887 31.7373 74.624 31.3125 73.4912C30.8877 72.3584 30.4346 71.0415 29.9531 69.5405C29.5 68.0112 29.0469 66.3828 28.5938 64.6553C28.1406 62.9277 27.7158 61.271 27.3193 59.6851C26.9229 58.0708 26.5688 56.5981 26.2573 55.2671C25.9458 53.936 25.7051 52.9307 25.5352 52.251V58.0283C25.5352 61.7949 25.606 65.5474 25.7476 69.2856C25.8892 73.0239 26.1299 76.748 26.4697 80.458C26.5547 81.2793 26.668 82.1006 26.8096 82.9219C26.9795 83.7432 27.0645 84.5645 27.0645 85.3857C27.0645 86.1221 26.8096 86.6035 26.2998 86.8301C25.8184 87.0566 25.2803 87.1699 24.6855 87.1699C23.0713 87.1699 21.8252 86.8301 20.9473 86.1504C20.0977 85.4424 19.6729 84.2529 19.6729 82.582C19.6729 79.1553 19.5879 75.7568 19.418 72.3867C19.248 69.0166 19.1631 65.6182 19.1631 62.1914C19.1631 61.71 19.1631 60.8745 19.1631 59.6851C19.1914 58.4956 19.2197 57.0938 19.248 55.4795C19.2764 53.8369 19.3047 52.0669 19.333 50.1694C19.3896 48.2437 19.4463 46.3037 19.5029 44.3496C19.5596 42.3955 19.6162 40.498 19.6729 38.6572C19.7295 36.7881 19.7861 35.1172 19.8428 33.6445C19.8994 32.1719 19.9561 30.9541 20.0127 29.9912C20.0977 29 20.1826 28.4053 20.2676 28.207C20.4092 27.8105 20.5649 27.5557 20.7349 27.4424C20.9331 27.3291 21.2305 27.2725 21.627 27.2725C22.7031 27.2725 23.5952 27.5132 24.3032 27.9946C25.0396 28.4478 25.5352 29.2266 25.79 30.3311C26.1865 30.9258 26.6396 32.0161 27.1494 33.6021C27.6592 35.1597 28.1973 36.9863 28.7637 39.082C29.3301 41.1777 29.8965 43.4434 30.4629 45.8789C31.0576 48.2861 31.6099 50.6084 32.1196 52.8457C32.6577 55.083 33.1392 57.1362 33.564 59.0054C34.0171 60.8745 34.3711 62.3047 34.626 63.2959C35.4473 58.4248 36.2827 53.582 37.1323 48.7676C37.9819 43.9531 38.7891 39.1104 39.5537 34.2393C39.6953 33.418 39.8369 32.6108 39.9785 31.8179C40.1484 31.0249 40.2334 30.2178 40.2334 29.3965C40.2334 28.8867 40.1626 28.4194 40.021 27.9946C39.8794 27.5415 39.8086 27.0742 39.8086 26.5928C39.8086 25.998 39.9927 25.644 40.3608 25.5308C40.7573 25.3892 41.1963 25.3184 41.6777 25.3184C42.1309 25.3184 42.6689 25.3892 43.292 25.5308C43.915 25.6724 44.5098 25.8848 45.0762 26.168C45.6709 26.4512 46.1665 26.8052 46.563 27.23C46.9878 27.6548 47.2002 28.1504 47.2002 28.7168C47.2002 29.708 47.1152 30.7559 46.9453 31.8604C47.9648 36.6465 48.8145 41.4468 49.4941 46.2612C50.1738 51.0474 50.6836 55.876 51.0234 60.7471C51.3633 64.9385 51.6323 69.1016 51.8306 73.2363C52.0571 77.3711 52.3262 81.5059 52.6377 85.6406C52.6943 85.8955 52.7368 86.1362 52.7651 86.3628C52.7935 86.5894 52.8076 86.8301 52.8076 87.085ZM86.4946 54.375C86.4946 55.5645 86.4663 56.9521 86.4097 58.5381C86.3813 60.0957 86.2822 61.7666 86.1123 63.5508C85.9707 65.335 85.7441 67.1616 85.4326 69.0308C85.1494 70.8999 84.7671 72.7266 84.2856 74.5107C83.8042 76.2949 83.2095 77.98 82.5015 79.5659C81.7935 81.1519 80.9438 82.5396 79.9526 83.729C78.9614 84.9185 77.8145 85.8672 76.5117 86.5752C75.209 87.2549 73.7222 87.5947 72.0513 87.5947C70.3804 87.5947 68.8652 87.2124 67.5059 86.4478C66.1465 85.6548 64.9995 84.6211 64.0649 83.3467C63.3003 82.3271 62.6206 81.0811 62.0259 79.6084C61.4595 78.1074 60.9497 76.479 60.4966 74.7231C60.0718 72.9673 59.7036 71.1406 59.3921 69.2432C59.0806 67.3457 58.8257 65.4766 58.6274 63.6357C58.4575 61.7949 58.3301 60.0532 58.2451 58.4106C58.1602 56.7397 58.1177 55.2812 58.1177 54.0352C58.1177 51.9395 58.2026 49.7446 58.3726 47.4507C58.5708 45.1567 58.9248 42.8911 59.4346 40.6538C59.9443 38.3882 60.6382 36.2075 61.5161 34.1118C62.394 32.0161 63.5269 30.1328 64.9146 28.4619C65.0562 28.292 65.2261 28.0937 65.4243 27.8672C65.6509 27.6406 65.8916 27.4282 66.1465 27.23C66.4014 27.0034 66.6562 26.8193 66.9111 26.6777C67.1943 26.5078 67.4634 26.4229 67.7183 26.4229C67.9731 26.4229 68.2139 26.4937 68.4404 26.6353C68.6953 26.7769 68.9077 26.9609 69.0776 27.1875C69.6724 26.8477 70.2954 26.6069 70.9468 26.4653C71.6265 26.3237 72.3062 26.2529 72.9858 26.2529C75.0532 26.2529 76.8232 26.7485 78.2959 27.7397C79.7969 28.7026 81.043 29.9771 82.0342 31.563C83.0254 33.1489 83.8184 34.9473 84.4131 36.958C85.0078 38.9688 85.4609 41.022 85.7725 43.1177C86.084 45.2134 86.2822 47.2383 86.3672 49.1924C86.4521 51.1465 86.4946 52.874 86.4946 54.375ZM79.8677 56.2441C79.8677 55.5078 79.8394 54.3892 79.7827 52.8882C79.7544 51.3589 79.6553 49.688 79.4854 47.8755C79.3154 46.0347 79.0747 44.1514 78.7632 42.2256C78.48 40.2998 78.0835 38.5581 77.5737 37.0005C77.064 35.4146 76.4268 34.126 75.6621 33.1348C74.9258 32.1152 74.0337 31.6055 72.9858 31.6055C72.561 31.6055 72.1787 31.8037 71.8389 32.2002C71.499 32.5967 71.1733 33.1064 70.8618 33.7295C70.5503 34.3525 70.2671 35.0322 70.0122 35.7686C69.7573 36.5049 69.5024 37.2129 69.2476 37.8926C68.9927 38.5723 68.752 39.1812 68.5254 39.7192C68.2988 40.2573 68.0581 40.6396 67.8032 40.8662C67.7183 40.9512 67.5767 41.0078 67.3784 41.0361C67.2085 41.0361 67.0386 41.0361 66.8687 41.0361C66.3872 41.0361 65.9341 40.9512 65.5093 40.7812C65.0278 42.707 64.688 44.6328 64.4897 46.5586C64.3198 48.4561 64.2349 50.3818 64.2349 52.3359C64.2349 52.9307 64.2632 53.8228 64.3198 55.0122C64.3765 56.2017 64.4614 57.561 64.5747 59.0903C64.688 60.6196 64.8438 62.2622 65.042 64.0181C65.2402 65.7739 65.481 67.5298 65.7642 69.2856C66.0474 71.0132 66.373 72.6841 66.7412 74.2983C67.1377 75.8843 67.5908 77.3003 68.1006 78.5464C68.6104 79.7642 69.1768 80.7412 69.7998 81.4775C70.4229 82.2139 71.1167 82.582 71.8813 82.582C72.3062 82.582 72.6885 82.4688 73.0283 82.2422C73.3682 81.9873 73.6938 81.7324 74.0054 81.4775C74.855 80.7129 75.5913 79.7075 76.2144 78.4614C76.8374 77.2153 77.3613 75.8418 77.7861 74.3408C78.2109 72.8398 78.5649 71.2681 78.8481 69.6255C79.1313 67.9546 79.3438 66.312 79.4854 64.6978C79.627 63.0835 79.7261 61.5542 79.7827 60.1099C79.8394 58.6372 79.8677 57.3486 79.8677 56.2441ZM126.894 87.085C126.894 87.6514 126.752 88.1045 126.469 88.4443C126.214 88.7842 125.761 88.9541 125.109 88.9541C124.77 88.9541 124.416 88.9116 124.047 88.8267C123.679 88.77 123.325 88.6709 122.985 88.5293C122.277 88.3311 121.711 88.147 121.286 87.9771C120.89 87.8071 120.578 87.5806 120.352 87.2974C120.153 87.0425 120.026 86.7026 119.969 86.2778C119.913 85.853 119.87 85.2725 119.842 84.5361C119.615 78.7305 119.36 72.9814 119.077 67.2891C118.822 61.5684 118.397 55.8193 117.803 50.042C117.406 51.9961 117.024 53.9502 116.656 55.9043C116.288 57.8584 115.905 59.8408 115.509 61.8516C115.112 63.9473 114.73 66.0854 114.362 68.2661C114.022 70.4468 113.47 72.5566 112.705 74.5957C112.394 75.417 112.011 76.0684 111.558 76.5498C111.105 77.0029 110.411 77.2295 109.477 77.2295C108.797 77.2295 108.245 77.1162 107.82 76.8896C107.395 76.6348 106.984 76.2666 106.588 75.7852C106.22 75.3887 105.823 74.624 105.398 73.4912C104.974 72.3584 104.521 71.0415 104.039 69.5405C103.586 68.0112 103.133 66.3828 102.68 64.6553C102.227 62.9277 101.802 61.271 101.405 59.6851C101.009 58.0708 100.655 56.5981 100.343 55.2671C100.032 53.936 99.791 52.9307 99.6211 52.251V58.0283C99.6211 61.7949 99.6919 65.5474 99.8335 69.2856C99.9751 73.0239 100.216 76.748 100.556 80.458C100.641 81.2793 100.754 82.1006 100.896 82.9219C101.065 83.7432 101.15 84.5645 101.15 85.3857C101.15 86.1221 100.896 86.6035 100.386 86.8301C99.9043 87.0566 99.3662 87.1699 98.7715 87.1699C97.1572 87.1699 95.9111 86.8301 95.0332 86.1504C94.1836 85.4424 93.7588 84.2529 93.7588 82.582C93.7588 79.1553 93.6738 75.7568 93.5039 72.3867C93.334 69.0166 93.249 65.6182 93.249 62.1914C93.249 61.71 93.249 60.8745 93.249 59.6851C93.2773 58.4956 93.3057 57.0938 93.334 55.4795C93.3623 53.8369 93.3906 52.0669 93.4189 50.1694C93.4756 48.2437 93.5322 46.3037 93.5889 44.3496C93.6455 42.3955 93.7021 40.498 93.7588 38.6572C93.8154 36.7881 93.8721 35.1172 93.9287 33.6445C93.9854 32.1719 94.042 30.9541 94.0986 29.9912C94.1836 29 94.2686 28.4053 94.3535 28.207C94.4951 27.8105 94.6509 27.5557 94.8208 27.4424C95.019 27.3291 95.3164 27.2725 95.7129 27.2725C96.7891 27.2725 97.6812 27.5132 98.3892 27.9946C99.1255 28.4478 99.6211 29.2266 99.876 30.3311C100.272 30.9258 100.726 32.0161 101.235 33.6021C101.745 35.1597 102.283 36.9863 102.85 39.082C103.416 41.1777 103.982 43.4434 104.549 45.8789C105.144 48.2861 105.696 50.6084 106.206 52.8457C106.744 55.083 107.225 57.1362 107.65 59.0054C108.103 60.8745 108.457 62.3047 108.712 63.2959C109.533 58.4248 110.369 53.582 111.218 48.7676C112.068 43.9531 112.875 39.1104 113.64 34.2393C113.781 33.418 113.923 32.6108 114.064 31.8179C114.234 31.0249 114.319 30.2178 114.319 29.3965C114.319 28.8867 114.249 28.4194 114.107 27.9946C113.965 27.5415 113.895 27.0742 113.895 26.5928C113.895 25.998 114.079 25.644 114.447 25.5308C114.843 25.3892 115.282 25.3184 115.764 25.3184C116.217 25.3184 116.755 25.3892 117.378 25.5308C118.001 25.6724 118.596 25.8848 119.162 26.168C119.757 26.4512 120.252 26.8052 120.649 27.23C121.074 27.6548 121.286 28.1504 121.286 28.7168C121.286 29.708 121.201 30.7559 121.031 31.8604C122.051 36.6465 122.9 41.4468 123.58 46.2612C124.26 51.0474 124.77 55.876 125.109 60.7471C125.449 64.9385 125.718 69.1016 125.917 73.2363C126.143 77.3711 126.412 81.5059 126.724 85.6406C126.78 85.8955 126.823 86.1362 126.851 86.3628C126.879 86.5894 126.894 86.8301 126.894 87.085ZM162.322 77.7393C162.322 78.2207 162.124 78.688 161.728 79.1411C161.359 79.5942 160.906 80.0332 160.368 80.458C159.83 80.8828 159.278 81.2793 158.711 81.6475C158.145 81.9873 157.678 82.2705 157.31 82.4971C156.347 83.1201 155.384 83.7007 154.421 84.2388C153.486 84.7769 152.509 85.2441 151.49 85.6406C150.499 86.0371 149.465 86.3486 148.389 86.5752C147.341 86.8018 146.236 86.915 145.075 86.915L144.396 87C143.461 87 142.526 86.9009 141.592 86.7026C140.686 86.4761 139.836 86.1504 139.043 85.7256C138.25 85.2725 137.542 84.7061 136.919 84.0264C136.296 83.3467 135.814 82.5254 135.475 81.5625C135.22 80.7979 135.021 79.8916 134.88 78.8438C134.738 77.7959 134.625 76.7056 134.54 75.5728C134.483 74.4399 134.427 73.3354 134.37 72.2593C134.342 71.1548 134.313 70.1777 134.285 69.3281C133.86 60.6621 133.521 51.9961 133.266 43.3301C133.209 42.3389 133.167 41.3477 133.138 40.3564C133.11 39.3652 133.096 38.374 133.096 37.3828C133.096 35.6836 133.195 34.2393 133.393 33.0498C133.591 31.8604 133.988 30.8833 134.583 30.1187C135.177 29.354 136.027 28.8018 137.131 28.4619C138.264 28.1221 139.751 27.9521 141.592 27.9521C143.433 27.9521 145.273 27.9663 147.114 27.9946C148.983 28.0229 150.853 28.0371 152.722 28.0371C153.288 28.0371 153.854 28.0229 154.421 27.9946C154.987 27.938 155.554 27.9805 156.12 28.1221C156.46 28.1787 156.757 28.2778 157.012 28.4194C157.267 28.5327 157.395 28.8018 157.395 29.2266C157.395 30.2461 157.055 31.0107 156.375 31.5205C155.695 32.002 154.888 32.3276 153.954 32.4976C153.019 32.6675 152.042 32.7524 151.022 32.7524C150.031 32.7241 149.21 32.71 148.559 32.71H143.036C142.47 32.71 141.903 32.71 141.337 32.71C140.771 32.71 140.204 32.7383 139.638 32.7949C139.468 33.2197 139.354 33.6587 139.298 34.1118C139.241 34.5649 139.213 35.0322 139.213 35.5137C139.213 38.6006 139.284 41.645 139.425 44.647C139.595 47.6489 139.751 50.6934 139.893 53.7803C141.648 53.6387 143.39 53.4688 145.118 53.2705C146.845 53.0723 148.587 52.8457 150.343 52.5908C150.598 52.5908 150.824 52.5767 151.022 52.5483C151.249 52.52 151.476 52.5059 151.702 52.5059C152.297 52.5059 152.708 52.6616 152.934 52.9731C153.189 53.2847 153.316 53.7236 153.316 54.29C153.316 54.6865 153.288 55.0547 153.231 55.3945C153.203 55.7344 153.118 56.0742 152.977 56.4141C152.778 56.9805 152.453 57.3911 152 57.646C151.546 57.9009 151.037 58.085 150.47 58.1982C149.904 58.2832 149.309 58.3257 148.686 58.3257C148.091 58.3257 147.567 58.3398 147.114 58.3682C145.925 58.4248 144.75 58.4673 143.588 58.4956C142.456 58.5239 141.309 58.5664 140.147 58.623C140.176 59.2178 140.218 60.1099 140.275 61.2993C140.332 62.4888 140.388 63.834 140.445 65.335C140.53 66.8076 140.615 68.3369 140.7 69.9229C140.813 71.5088 140.926 73.0098 141.04 74.4258C141.153 75.8135 141.28 77.0312 141.422 78.0791C141.563 79.127 141.705 79.835 141.847 80.2031C142.158 80.7979 142.512 81.1943 142.909 81.3926C143.305 81.5625 143.829 81.6475 144.48 81.6475C145.528 81.6475 146.633 81.4492 147.794 81.0527C148.955 80.6279 150.088 80.104 151.192 79.481C152.297 78.8296 153.345 78.1216 154.336 77.3569C155.355 76.5923 156.233 75.8418 156.97 75.1055C157.281 74.8506 157.593 74.5957 157.904 74.3408C158.216 74.0576 158.584 73.916 159.009 73.916C159.434 73.916 159.844 74.0435 160.241 74.2983C160.637 74.5532 160.991 74.8789 161.303 75.2754C161.614 75.6436 161.855 76.0542 162.025 76.5073C162.223 76.9604 162.322 77.3711 162.322 77.7393ZM191.464 83.5166C191.464 84.0264 191.407 84.5361 191.294 85.0459C191.209 85.5273 191.039 85.9663 190.784 86.3628C190.558 86.731 190.246 87.0283 189.85 87.2549C189.453 87.4814 188.943 87.5947 188.32 87.5947C187.556 87.5947 186.933 87.4248 186.451 87.085C185.998 86.7734 185.573 86.3203 185.177 85.7256C184.639 84.9609 184.157 84.083 183.732 83.0918C183.308 82.0723 182.925 81.0386 182.585 79.9907C182.246 78.9146 181.92 77.8525 181.608 76.8047C181.325 75.7285 181.042 74.7373 180.759 73.8311C179.229 69.0732 177.799 64.3296 176.468 59.6001C175.166 54.8706 173.764 50.127 172.263 45.3691C172.121 51.5146 172.008 57.6318 171.923 63.7207C171.866 69.8096 171.838 75.9268 171.838 82.0723C171.838 82.3838 171.824 82.7378 171.795 83.1343C171.767 83.5308 171.696 83.9131 171.583 84.2812C171.47 84.6211 171.286 84.9185 171.031 85.1733C170.804 85.4282 170.479 85.5557 170.054 85.5557C168.609 85.5557 167.505 85.1733 166.74 84.4087C166.004 83.6157 165.636 82.4971 165.636 81.0527C165.636 73.0947 165.65 65.2075 165.678 57.3911C165.707 49.5747 165.721 41.7158 165.721 33.8145V27.7822C165.721 27.1309 165.834 26.5928 166.061 26.168C166.315 25.7148 166.854 25.4883 167.675 25.4883C168.241 25.4883 168.822 25.5732 169.417 25.7432C170.011 25.8848 170.535 26.1113 170.988 26.4229C171.47 26.7344 171.852 27.145 172.135 27.6548C172.447 28.1362 172.603 28.7168 172.603 29.3965C173.792 31.6621 174.783 33.9985 175.576 36.4058C176.397 38.813 177.19 41.2344 177.955 43.6699C179.06 47.21 180.15 50.75 181.226 54.29C182.302 57.8301 183.393 61.3984 184.497 64.9951C184.327 59.6426 184.143 54.3042 183.945 48.98C183.775 43.6274 183.421 38.2891 182.883 32.9648C182.741 31.8037 182.571 30.6709 182.373 29.5664C182.203 28.4619 182.118 27.3291 182.118 26.168C182.118 25.5732 182.316 25.1768 182.713 24.9785C183.109 24.752 183.562 24.6387 184.072 24.6387C184.95 24.6387 185.701 24.7095 186.324 24.8511C186.947 24.9927 187.471 25.2334 187.896 25.5732C188.32 25.9131 188.646 26.3804 188.873 26.9751C189.099 27.5415 189.283 28.2637 189.425 29.1416C189.595 30.6709 189.722 32.2144 189.807 33.772C189.92 35.3013 190.02 36.8164 190.104 38.3174C190.359 42.1123 190.543 45.8789 190.657 49.6172C190.77 53.3555 190.869 57.1221 190.954 60.917C191.039 64.6836 191.138 68.4502 191.251 72.2168C191.393 75.9551 191.464 79.7217 191.464 83.5166ZM225.236 28.5469C225.236 29.5664 224.938 30.4019 224.344 31.0532C223.777 31.7046 222.999 32.1436 222.007 32.3701C220.421 32.71 218.793 32.894 217.122 32.9224C215.479 32.9224 213.851 32.9648 212.237 33.0498V41.4609C212.237 48.5977 212.449 55.7202 212.874 62.8286C213.327 69.9087 214.049 77.0029 215.041 84.1113C215.125 84.5361 215.21 84.9609 215.295 85.3857C215.409 85.8105 215.465 86.2354 215.465 86.6602C215.465 87.3398 215.281 87.8354 214.913 88.147C214.573 88.4585 214.078 88.6143 213.426 88.6143C212.917 88.6143 212.279 88.5435 211.515 88.4019C210.778 88.2886 210.198 88.1045 209.773 87.8496C209.207 87.5098 208.838 87.1699 208.668 86.8301C208.527 86.4619 208.414 85.9805 208.329 85.3857C208.017 83.375 207.805 81.3643 207.691 79.3535C207.578 77.3428 207.451 75.332 207.309 73.3213C206.969 69.0166 206.686 64.7261 206.459 60.4497C206.233 56.1733 206.12 51.8828 206.12 47.5781C206.12 45.2275 206.134 42.8911 206.162 40.5688C206.19 38.2466 206.205 35.8818 206.205 33.4746C204.449 33.6445 202.679 33.8145 200.895 33.9844C199.139 34.1543 197.369 34.2393 195.584 34.2393C195.16 34.2393 194.82 34.1401 194.565 33.9419C194.282 33.7153 194.14 33.3896 194.14 32.9648C194.14 31.9736 194.466 31.209 195.117 30.6709C195.769 30.1045 196.547 29.708 197.454 29.4814C198.898 29.1699 200.371 28.9717 201.872 28.8867C203.373 28.7734 204.874 28.6318 206.375 28.4619C206.375 28.1787 206.389 27.9097 206.417 27.6548C206.445 27.3716 206.502 27.1309 206.587 26.9326C206.7 26.7061 206.856 26.522 207.054 26.3804C207.252 26.2388 207.536 26.168 207.904 26.168C208.583 26.168 209.277 26.3237 209.985 26.6353C210.693 26.9468 211.246 27.3857 211.642 27.9521L218.694 27.1875C219.374 27.1025 220.053 27.0176 220.733 26.9326C221.413 26.8193 222.092 26.7627 222.772 26.7627C223.083 26.7627 223.381 26.7769 223.664 26.8052C223.976 26.8335 224.245 26.9185 224.471 27.0601C224.698 27.1733 224.882 27.3574 225.023 27.6123C225.165 27.8389 225.236 28.1504 225.236 28.5469ZM263.468 66.9492C263.468 68.4219 263.369 69.9795 263.171 71.6221C263.001 73.2363 262.704 74.8506 262.279 76.4648C261.854 78.0508 261.302 79.5801 260.622 81.0527C259.942 82.5254 259.079 83.8281 258.031 84.9609C257.011 86.0654 255.808 86.9434 254.42 87.5947C253.032 88.2744 251.432 88.6143 249.62 88.6143C248.43 88.6143 247.269 88.4585 246.136 88.147C245.032 87.8354 243.984 87.3398 242.993 86.6602C242.285 86.1787 241.619 85.584 240.996 84.876C240.401 84.168 239.877 83.4033 239.424 82.582C238.971 81.7324 238.617 80.8687 238.362 79.9907C238.107 79.0845 237.98 78.1924 237.98 77.3145C237.98 76.125 238.603 75.5303 239.849 75.5303C240.359 75.5303 240.982 75.6011 241.718 75.7427C242.483 75.856 243.106 76.04 243.587 76.2949C244.012 76.5215 244.324 76.7905 244.522 77.1021C244.749 77.3853 244.918 77.6968 245.032 78.0366C245.173 78.3765 245.287 78.7446 245.372 79.1411C245.485 79.5376 245.626 79.9199 245.796 80.2881C246.136 81.1094 246.646 81.8315 247.326 82.4546C248.005 83.0493 248.798 83.3467 249.705 83.3467C250.667 83.3467 251.531 83.021 252.296 82.3696C253.061 81.7183 253.712 80.8828 254.25 79.8633C254.816 78.8154 255.284 77.6543 255.652 76.3799C256.048 75.0771 256.36 73.7886 256.586 72.5142C256.841 71.2397 257.011 70.0503 257.096 68.9458C257.209 67.813 257.266 66.8926 257.266 66.1846C257.266 65.1367 257.181 64.0039 257.011 62.7861C256.87 61.54 256.572 60.3931 256.119 59.3452C255.666 58.2974 255.029 57.4336 254.208 56.7539C253.386 56.0742 252.31 55.7627 250.979 55.8193H250.469C250.271 56.0459 250.044 56.3291 249.79 56.6689C249.563 56.9805 249.308 57.292 249.025 57.6035C248.77 57.8867 248.487 58.1274 248.175 58.3257C247.864 58.5239 247.552 58.623 247.241 58.623C246.816 58.623 246.391 58.5098 245.966 58.2832C245.542 58.0283 245.159 57.7168 244.819 57.3486C244.479 56.9805 244.196 56.5698 243.97 56.1167C243.771 55.6636 243.672 55.2246 243.672 54.7998C243.672 54.6582 243.672 54.5308 243.672 54.4175C243.672 54.3042 243.701 54.2051 243.757 54.1201C244.182 53.2705 244.763 52.4775 245.499 51.7412C246.235 50.9766 246.901 50.2119 247.496 49.4473C248.119 48.5977 248.756 47.6631 249.407 46.6436C250.087 45.5957 250.682 44.5195 251.191 43.415C251.729 42.2822 252.168 41.1353 252.508 39.9741C252.848 38.813 253.018 37.6943 253.018 36.6182C253.018 35.9102 252.933 35.2588 252.763 34.6641C252.622 34.041 252.381 33.5029 252.041 33.0498C251.701 32.5684 251.248 32.2002 250.682 31.9453C250.144 31.6621 249.478 31.5205 248.685 31.5205C248.034 31.5205 247.453 31.6621 246.943 31.9453C246.462 32.2002 246.037 32.54 245.669 32.9648C245.329 33.3896 245.046 33.8853 244.819 34.4517C244.621 34.9897 244.465 35.542 244.352 36.1084C244.21 36.5332 244.14 36.9722 244.14 37.4253C244.14 37.8501 244.069 38.2607 243.927 38.6572C243.786 39.0537 243.616 39.3228 243.417 39.4644C243.219 39.606 242.908 39.6768 242.483 39.6768C242.001 39.6768 241.52 39.606 241.039 39.4644C240.557 39.3228 240.118 39.1104 239.722 38.8271C239.354 38.5439 239.042 38.2041 238.787 37.8076C238.532 37.3828 238.405 36.9014 238.405 36.3633C238.405 35.5137 238.575 34.6074 238.915 33.6445C239.283 32.6816 239.708 31.832 240.189 31.0957C241.124 29.5947 242.355 28.4761 243.885 27.7397C245.442 26.9751 247.099 26.5928 248.855 26.5928C250.413 26.5928 251.829 26.8335 253.103 27.3149C254.406 27.7681 255.524 28.4336 256.459 29.3115C257.394 30.1895 258.116 31.2656 258.625 32.54C259.135 33.7861 259.39 35.2021 259.39 36.7881C259.39 38.1191 259.234 39.4219 258.923 40.6963C258.64 41.9707 258.243 43.2168 257.733 44.4346C257.224 45.6523 256.629 46.8418 255.949 48.0029C255.298 49.1641 254.604 50.2686 253.868 51.3164C255.737 51.7129 257.28 52.4351 258.498 53.4829C259.744 54.5024 260.735 55.7344 261.472 57.1787C262.208 58.623 262.718 60.1948 263.001 61.894C263.312 63.5933 263.468 65.2783 263.468 66.9492ZM296.221 54.1201C296.221 54.5166 296.136 54.8848 295.966 55.2246C295.796 55.7061 295.626 56.1025 295.456 56.4141C295.314 56.7256 295.13 56.9663 294.904 57.1362C294.677 57.3062 294.394 57.4336 294.054 57.5186C293.743 57.5752 293.332 57.6035 292.822 57.6035H281.268C281.069 57.6035 280.814 57.6035 280.503 57.6035C280.22 57.5752 279.922 57.5327 279.611 57.4761C279.328 57.3911 279.073 57.2778 278.846 57.1362C278.648 56.9663 278.549 56.7256 278.549 56.4141C278.549 55.7344 278.79 55.1396 279.271 54.6299C279.752 54.0918 280.333 53.752 281.013 53.6104C281.579 53.5254 282.146 53.4829 282.712 53.4829C283.278 53.4546 283.845 53.4121 284.411 53.3555C286.025 53.2705 287.64 53.1855 289.254 53.1006C290.868 52.9873 292.511 52.9307 294.182 52.9307C294.38 52.9307 294.592 52.9448 294.819 52.9731C295.074 52.9731 295.3 53.0156 295.499 53.1006C295.725 53.1572 295.895 53.2705 296.008 53.4404C296.15 53.6104 296.221 53.8369 296.221 54.1201ZM344.266 74.4258C344.266 74.8506 344.195 75.2754 344.054 75.7002C343.94 76.0967 343.813 76.4932 343.671 76.8896C343.048 78.5039 342.284 80.0049 341.377 81.3926C340.471 82.752 339.423 83.9272 338.234 84.9185C337.044 85.9097 335.699 86.6885 334.198 87.2549C332.697 87.8213 331.041 88.1045 329.228 88.1045C326.821 88.1045 324.753 87.5947 323.026 86.5752C321.298 85.5557 319.826 84.2388 318.608 82.6245C317.39 80.9819 316.385 79.1553 315.592 77.1445C314.827 75.1338 314.218 73.123 313.765 71.1123C313.085 68.1953 312.562 65.2783 312.193 62.3613C311.825 59.416 311.641 56.4707 311.641 53.5254C311.641 51.7979 311.712 50.0137 311.854 48.1729C312.023 46.332 312.307 44.5195 312.703 42.7354C313.1 40.9229 313.638 39.1812 314.317 37.5103C314.997 35.811 315.847 34.2534 316.866 32.8374C317.886 31.3931 319.089 30.1187 320.477 29.0142C321.893 27.9097 323.536 27.0459 325.405 26.4229C326.084 26.168 326.792 25.998 327.529 25.9131C328.265 25.7998 329.001 25.7432 329.738 25.7432C331.21 25.7432 332.612 25.9839 333.943 26.4653C335.274 26.9468 336.436 27.6265 337.427 28.5044C338.446 29.3823 339.239 30.4443 339.806 31.6904C340.4 32.9365 340.698 34.3242 340.698 35.8535C340.698 36.3633 340.584 36.7456 340.358 37.0005C340.131 37.2554 339.735 37.3828 339.168 37.3828C338.121 37.3828 337.299 37.2129 336.705 36.873C336.138 36.5332 335.671 36.1084 335.303 35.5986C334.935 35.0889 334.623 34.5366 334.368 33.9419C334.142 33.3472 333.858 32.7949 333.519 32.2852C333.179 31.7754 332.726 31.3506 332.159 31.0107C331.593 30.6709 330.814 30.501 329.823 30.501C328.832 30.501 327.897 30.6992 327.019 31.0957C326.169 31.4639 325.376 31.9595 324.64 32.5825C323.932 33.2056 323.281 33.9136 322.686 34.7065C322.12 35.4712 321.61 36.25 321.157 37.043C319.967 39.252 319.132 41.6167 318.65 44.1372C318.169 46.6294 317.928 49.1357 317.928 51.6562C317.928 52.5059 317.957 53.6104 318.013 54.9697C318.098 56.3008 318.211 57.7734 318.353 59.3877C318.523 61.002 318.75 62.7153 319.033 64.5278C319.316 66.312 319.656 68.0679 320.052 69.7954C320.477 71.5229 320.973 73.1797 321.539 74.7656C322.134 76.3516 322.799 77.7393 323.536 78.9287C324.3 80.1182 325.15 81.0669 326.084 81.7749C327.047 82.4829 328.124 82.8369 329.313 82.8369C330.531 82.8369 331.607 82.5254 332.542 81.9023C333.476 81.251 334.269 80.4438 334.92 79.481C335.6 78.4897 336.152 77.4277 336.577 76.2949C337.03 75.1338 337.384 74.0576 337.639 73.0664C337.724 72.7832 337.795 72.5283 337.852 72.3018C337.937 72.0752 338.036 71.877 338.149 71.707C338.291 71.5371 338.46 71.4097 338.659 71.3247C338.857 71.2397 339.14 71.1973 339.508 71.1973C339.905 71.1973 340.372 71.2822 340.91 71.4521C341.477 71.5938 342 71.8062 342.482 72.0894C342.992 72.3726 343.417 72.7124 343.756 73.1089C344.096 73.5054 344.266 73.9443 344.266 74.4258ZM376.806 56.584C376.806 59.6143 376.537 62.6021 375.999 65.5474C375.461 68.4644 374.569 71.1973 373.323 73.7461C372.105 76.2949 370.491 78.6172 368.48 80.7129C366.469 82.7803 364.005 84.4795 361.088 85.8105C360.352 86.1504 359.545 86.4619 358.667 86.7451C357.817 87.0283 356.925 87.269 355.991 87.4673C355.084 87.6655 354.178 87.8213 353.272 87.9346C352.366 88.0479 351.516 88.1045 350.723 88.1045C350.412 88.1045 350.058 88.0903 349.661 88.062C349.293 88.062 348.939 88.0054 348.599 87.8921C348.259 87.8071 347.976 87.6514 347.75 87.4248C347.523 87.1982 347.41 86.8867 347.41 86.4902C347.41 86.1504 347.48 85.7964 347.622 85.4282C347.764 85.0601 347.948 84.7061 348.174 84.3662C348.429 84.0264 348.698 83.729 348.981 83.4741C349.265 83.1909 349.562 82.9785 349.874 82.8369C349.732 82.6104 349.59 81.9731 349.449 80.9253C349.335 79.8774 349.222 78.5464 349.109 76.9321C349.024 75.3179 348.939 73.5195 348.854 71.5371C348.769 69.5264 348.684 67.459 348.599 65.335C348.542 63.2109 348.486 61.1011 348.429 59.0054C348.401 56.8813 348.373 54.9272 348.344 53.1431C348.316 51.3589 348.288 49.8154 348.259 48.5127C348.259 47.1816 348.259 46.2188 348.259 45.624C348.259 42.9619 348.302 40.3423 348.387 37.7651C348.472 35.188 348.514 32.5684 348.514 29.9062C348.203 29.9062 347.905 29.8213 347.622 29.6514C347.367 29.4814 347.24 29.2266 347.24 28.8867C347.24 28.4336 347.353 28.0229 347.58 27.6548C347.806 27.2583 348.089 26.9185 348.429 26.6353C348.797 26.3521 349.194 26.1396 349.619 25.998C350.072 25.8281 350.497 25.7432 350.893 25.7432C351.29 25.7432 351.672 25.7856 352.04 25.8706C352.408 25.9272 352.791 25.998 353.187 26.083C356.954 26.9893 360.31 28.3628 363.255 30.2036C366.2 32.0444 368.664 34.2817 370.646 36.9155C372.657 39.5493 374.187 42.5229 375.234 45.8364C376.282 49.1499 376.806 52.7324 376.806 56.584ZM370.519 55.8193C370.519 52.9873 370.179 50.3252 369.5 47.833C368.82 45.3125 367.8 43.0186 366.441 40.9512C365.11 38.8555 363.425 37.0146 361.386 35.4287C359.375 33.8145 357.039 32.4834 354.376 31.4355V31.6055C354.376 38.9121 354.49 46.1621 354.716 53.3555C354.971 60.5205 355.339 67.7422 355.821 75.0205C355.906 76.125 355.977 77.2295 356.033 78.334C356.118 79.4102 356.246 80.4863 356.416 81.5625C359.078 80.6846 361.315 79.3252 363.127 77.4844C364.94 75.6436 366.384 73.5479 367.46 71.1973C368.565 68.8184 369.344 66.2979 369.797 63.6357C370.278 60.9453 370.519 58.3398 370.519 55.8193ZM396.05 54.1201C396.05 54.5166 395.965 54.8848 395.795 55.2246C395.625 55.7061 395.455 56.1025 395.285 56.4141C395.144 56.7256 394.959 56.9663 394.733 57.1362C394.506 57.3062 394.223 57.4336 393.883 57.5186C393.572 57.5752 393.161 57.6035 392.651 57.6035H381.097C380.898 57.6035 380.644 57.6035 380.332 57.6035C380.049 57.5752 379.751 57.5327 379.44 57.4761C379.157 57.3911 378.902 57.2778 378.675 57.1362C378.477 56.9663 378.378 56.7256 378.378 56.4141C378.378 55.7344 378.619 55.1396 379.1 54.6299C379.582 54.0918 380.162 53.752 380.842 53.6104C381.408 53.5254 381.975 53.4829 382.541 53.4829C383.107 53.4546 383.674 53.4121 384.24 53.3555C385.854 53.2705 387.469 53.1855 389.083 53.1006C390.697 52.9873 392.34 52.9307 394.011 52.9307C394.209 52.9307 394.421 52.9448 394.648 52.9731C394.903 52.9731 395.129 53.0156 395.328 53.1006C395.554 53.1572 395.724 53.2705 395.837 53.4404C395.979 53.6104 396.05 53.8369 396.05 54.1201ZM423.195 73.5762C423.195 75.6719 422.855 77.6543 422.175 79.5234C421.496 81.3926 420.519 83.0352 419.244 84.4512C417.998 85.8389 416.483 86.9434 414.699 87.7646C412.915 88.6143 410.932 89.0391 408.751 89.0391C406.826 89.0391 405.042 88.7275 403.399 88.1045C401.785 87.5098 400.383 86.6602 399.193 85.5557C398.004 84.4512 397.069 83.106 396.39 81.52C395.738 79.9341 395.413 78.1641 395.413 76.21C395.413 75.8135 395.427 75.3179 395.455 74.7231C395.483 74.1284 395.568 73.562 395.71 73.0239C395.88 72.4575 396.106 71.9902 396.39 71.6221C396.701 71.2256 397.14 71.0273 397.707 71.0273C398.16 71.0273 398.655 71.1265 399.193 71.3247C399.76 71.4946 400.284 71.7354 400.765 72.0469C401.247 72.3584 401.643 72.7407 401.955 73.1938C402.294 73.6187 402.464 74.0859 402.464 74.5957V77.0596C402.464 79.0137 402.988 80.6138 404.036 81.8599C405.112 83.0776 406.656 83.6865 408.667 83.6865C410.083 83.6865 411.3 83.3608 412.32 82.7095C413.339 82.0581 414.161 81.2227 414.784 80.2031C415.435 79.1836 415.902 78.0508 416.186 76.8047C416.497 75.5303 416.653 74.2842 416.653 73.0664C416.653 70.6875 416.157 68.3794 415.166 66.1421C414.203 63.9048 412.985 61.7241 411.513 59.6001C410.04 57.4478 408.44 55.3379 406.712 53.2705C404.985 51.2031 403.385 49.1499 401.912 47.1108C400.439 45.0718 399.208 43.0327 398.216 40.9937C397.253 38.9546 396.772 36.873 396.772 34.749C396.772 33.0215 397.112 31.5347 397.792 30.2886C398.5 29.0142 399.42 27.9805 400.553 27.1875C401.714 26.3662 403.017 25.7715 404.461 25.4033C405.934 25.0068 407.449 24.8086 409.006 24.8086C410.904 24.8086 412.603 25.0776 414.104 25.6157C415.605 26.1538 416.879 26.9326 417.927 27.9521C418.975 28.9717 419.768 30.2319 420.306 31.7329C420.873 33.2056 421.156 34.8906 421.156 36.7881C421.156 37.0713 421.142 37.4253 421.113 37.8501C421.085 38.2749 421.014 38.6997 420.901 39.1245C420.788 39.521 420.618 39.875 420.391 40.1865C420.165 40.4697 419.853 40.6113 419.457 40.6113C418.89 40.6113 418.324 40.4697 417.757 40.1865C417.276 39.9316 416.879 39.6909 416.568 39.4644C416.285 39.2095 416.058 38.9404 415.888 38.6572C415.718 38.3457 415.591 38.0059 415.506 37.6377C415.421 37.2695 415.35 36.8164 415.293 36.2783C415.152 35.2588 414.968 34.3384 414.741 33.5171C414.515 32.6958 414.175 32.002 413.722 31.4355C413.269 30.8691 412.674 30.4302 411.938 30.1187C411.201 29.8071 410.252 29.6514 409.091 29.6514C408.27 29.6514 407.477 29.7363 406.712 29.9062C405.976 30.0762 405.325 30.3594 404.758 30.7559C404.22 31.1523 403.781 31.6763 403.441 32.3276C403.13 32.9507 402.974 33.7295 402.974 34.6641C402.974 35.9668 403.257 37.2979 403.824 38.6572C404.418 40.0166 405.183 41.4043 406.118 42.8203C407.081 44.2363 408.157 45.6948 409.346 47.1958C410.564 48.6685 411.81 50.1978 413.084 51.7837C414.359 53.3696 415.591 55.0122 416.78 56.7114C417.998 58.3823 419.074 60.124 420.009 61.9365C420.972 63.749 421.736 65.6323 422.303 67.5864C422.897 69.5122 423.195 71.5088 423.195 73.5762ZM457.731 63.6357C457.731 64.2305 457.519 64.8535 457.094 65.5049C456.669 66.1562 456.202 66.6377 455.692 66.9492C455.551 67.0342 455.31 67.1191 454.97 67.2041C454.63 67.2891 454.262 67.374 453.866 67.459C453.498 67.5156 453.129 67.5864 452.761 67.6714C452.421 67.728 452.152 67.7705 451.954 67.7988L452.974 74.0859C453.285 76.04 453.512 78.0083 453.653 79.9907C453.823 81.9448 454.191 83.8848 454.758 85.8105C454.814 85.9805 454.871 86.1362 454.928 86.2778C454.984 86.4194 455.013 86.6035 455.013 86.8301C455.013 87.1982 454.899 87.4814 454.673 87.6797C454.475 87.8779 454.22 88.0195 453.908 88.1045C453.625 88.2178 453.313 88.2886 452.974 88.3169C452.634 88.3452 452.322 88.3594 452.039 88.3594H451.444C450.566 88.3594 449.887 88.2886 449.405 88.147C448.952 88.0054 448.598 87.7646 448.343 87.4248C448.088 87.085 447.918 86.6602 447.833 86.1504C447.749 85.6123 447.649 84.9609 447.536 84.1963C446.856 79.0137 446.092 73.8311 445.242 68.6484C443.486 68.875 441.716 69.0874 439.932 69.2856C438.176 69.4839 436.406 69.668 434.622 69.8379L433.263 78.1641C433.206 78.6738 433.121 79.3677 433.008 80.2456C432.923 81.1235 432.81 82.0298 432.668 82.9644C432.555 83.8706 432.413 84.7202 432.243 85.5132C432.102 86.3062 431.932 86.8867 431.733 87.2549C431.563 87.5947 431.408 87.8354 431.266 87.9771C431.125 88.1187 430.855 88.1895 430.459 88.1895C429.949 88.1895 429.439 88.0903 428.93 87.8921C428.448 87.7222 428.009 87.4673 427.613 87.1274C427.245 86.8159 426.947 86.4336 426.721 85.9805C426.494 85.5273 426.381 85.0176 426.381 84.4512C426.381 83.8848 426.438 83.3184 426.551 82.752C426.692 82.1855 426.806 81.6191 426.891 81.0527C427.202 79.1836 427.485 77.3286 427.74 75.4878C427.995 73.6187 428.278 71.7637 428.59 69.9229C428.392 69.8945 428.165 69.8521 427.91 69.7954C427.655 69.7104 427.4 69.6113 427.146 69.498C426.919 69.3848 426.721 69.2432 426.551 69.0732C426.381 68.9033 426.296 68.7051 426.296 68.4785C426.296 68.1953 426.395 67.9404 426.593 67.7139C426.82 67.459 427.075 67.2324 427.358 67.0342C427.669 66.8076 427.981 66.6235 428.292 66.4819C428.604 66.312 428.873 66.1846 429.1 66.0996C429.694 62.1348 430.261 58.1841 430.799 54.2476C431.337 50.311 431.818 46.332 432.243 42.3105C432.356 41.2344 432.456 40.144 432.541 39.0396C432.625 37.9351 432.71 36.8306 432.795 35.7261C432.909 34.6216 433.036 33.5312 433.178 32.4551C433.348 31.3789 433.574 30.3027 433.857 29.2266C434.112 28.207 434.537 27.3857 435.132 26.7627C435.727 26.1396 436.604 25.8281 437.766 25.8281C438.105 25.8281 438.431 25.8564 438.743 25.9131C439.083 25.9697 439.38 26.083 439.635 26.2529C440.371 26.6211 441.136 27.6265 441.929 29.269C442.722 30.9116 443.515 32.9082 444.308 35.2588C445.101 37.5811 445.851 40.1016 446.559 42.8203C447.295 45.5391 447.961 48.1729 448.556 50.7217C449.15 53.2705 449.66 55.5786 450.085 57.646C450.51 59.6851 450.821 61.2002 451.02 62.1914C451.614 62.1064 452.209 62.0356 452.804 61.979C453.398 61.894 453.993 61.8516 454.588 61.8516C454.871 61.8516 455.197 61.8657 455.565 61.894C455.933 61.9224 456.273 62.0073 456.584 62.1489C456.924 62.2622 457.193 62.4463 457.392 62.7012C457.618 62.9277 457.731 63.2393 457.731 63.6357ZM444.393 63.2959C443.656 59.2744 442.849 55.2954 441.971 51.3589C441.122 47.394 440.116 43.4434 438.955 39.5068C438.445 43.7832 437.893 48.0312 437.298 52.251C436.704 56.4707 436.066 60.6904 435.387 64.9102C436.916 64.6836 438.417 64.4429 439.89 64.188C441.391 63.9048 442.892 63.6074 444.393 63.2959ZM493.84 87.085C493.84 87.6514 493.698 88.1045 493.415 88.4443C493.16 88.7842 492.707 88.9541 492.056 88.9541C491.716 88.9541 491.362 88.9116 490.994 88.8267C490.625 88.77 490.271 88.6709 489.932 88.5293C489.224 88.3311 488.657 88.147 488.232 87.9771C487.836 87.8071 487.524 87.5806 487.298 87.2974C487.1 87.0425 486.972 86.7026 486.916 86.2778C486.859 85.853 486.816 85.2725 486.788 84.5361C486.562 78.7305 486.307 72.9814 486.023 67.2891C485.769 61.5684 485.344 55.8193 484.749 50.042C484.353 51.9961 483.97 53.9502 483.602 55.9043C483.234 57.8584 482.852 59.8408 482.455 61.8516C482.059 63.9473 481.676 66.0854 481.308 68.2661C480.968 70.4468 480.416 72.5566 479.651 74.5957C479.34 75.417 478.958 76.0684 478.504 76.5498C478.051 77.0029 477.357 77.2295 476.423 77.2295C475.743 77.2295 475.191 77.1162 474.766 76.8896C474.341 76.6348 473.931 76.2666 473.534 75.7852C473.166 75.3887 472.77 74.624 472.345 73.4912C471.92 72.3584 471.467 71.0415 470.985 69.5405C470.532 68.0112 470.079 66.3828 469.626 64.6553C469.173 62.9277 468.748 61.271 468.352 59.6851C467.955 58.0708 467.601 56.5981 467.29 55.2671C466.978 53.936 466.737 52.9307 466.567 52.251V58.0283C466.567 61.7949 466.638 65.5474 466.78 69.2856C466.921 73.0239 467.162 76.748 467.502 80.458C467.587 81.2793 467.7 82.1006 467.842 82.9219C468.012 83.7432 468.097 84.5645 468.097 85.3857C468.097 86.1221 467.842 86.6035 467.332 86.8301C466.851 87.0566 466.312 87.1699 465.718 87.1699C464.104 87.1699 462.857 86.8301 461.979 86.1504C461.13 85.4424 460.705 84.2529 460.705 82.582C460.705 79.1553 460.62 75.7568 460.45 72.3867C460.28 69.0166 460.195 65.6182 460.195 62.1914C460.195 61.71 460.195 60.8745 460.195 59.6851C460.224 58.4956 460.252 57.0938 460.28 55.4795C460.309 53.8369 460.337 52.0669 460.365 50.1694C460.422 48.2437 460.479 46.3037 460.535 44.3496C460.592 42.3955 460.648 40.498 460.705 38.6572C460.762 36.7881 460.818 35.1172 460.875 33.6445C460.932 32.1719 460.988 30.9541 461.045 29.9912C461.13 29 461.215 28.4053 461.3 28.207C461.441 27.8105 461.597 27.5557 461.767 27.4424C461.965 27.3291 462.263 27.2725 462.659 27.2725C463.735 27.2725 464.627 27.5132 465.335 27.9946C466.072 28.4478 466.567 29.2266 466.822 30.3311C467.219 30.9258 467.672 32.0161 468.182 33.6021C468.691 35.1597 469.229 36.9863 469.796 39.082C470.362 41.1777 470.929 43.4434 471.495 45.8789C472.09 48.2861 472.642 50.6084 473.152 52.8457C473.69 55.083 474.171 57.1362 474.596 59.0054C475.049 60.8745 475.403 62.3047 475.658 63.2959C476.479 58.4248 477.315 53.582 478.165 48.7676C479.014 43.9531 479.821 39.1104 480.586 34.2393C480.728 33.418 480.869 32.6108 481.011 31.8179C481.181 31.0249 481.266 30.2178 481.266 29.3965C481.266 28.8867 481.195 28.4194 481.053 27.9946C480.912 27.5415 480.841 27.0742 480.841 26.5928C480.841 25.998 481.025 25.644 481.393 25.5308C481.79 25.3892 482.229 25.3184 482.71 25.3184C483.163 25.3184 483.701 25.3892 484.324 25.5308C484.947 25.6724 485.542 25.8848 486.108 26.168C486.703 26.4512 487.199 26.8052 487.595 27.23C488.02 27.6548 488.232 28.1504 488.232 28.7168C488.232 29.708 488.147 30.7559 487.978 31.8604C488.997 36.6465 489.847 41.4468 490.526 46.2612C491.206 51.0474 491.716 55.876 492.056 60.7471C492.396 64.9385 492.665 69.1016 492.863 73.2363C493.089 77.3711 493.358 81.5059 493.67 85.6406C493.727 85.8955 493.769 86.1362 493.797 86.3628C493.826 86.5894 493.84 86.8301 493.84 87.085ZM524.638 80.7979C524.638 81.4492 524.284 82.0723 523.576 82.667C522.896 83.2617 522.004 83.814 520.9 84.3237C519.824 84.8052 518.62 85.2583 517.289 85.6831C515.986 86.0796 514.698 86.4194 513.423 86.7026C512.177 86.9858 511.03 87.1982 509.982 87.3398C508.935 87.5098 508.156 87.5947 507.646 87.5947C506.683 87.5947 505.791 87.4814 504.97 87.2549C504.177 87.0283 503.483 86.6885 502.888 86.2354C502.293 85.7539 501.826 85.145 501.486 84.4087C501.175 83.6724 501.019 82.7803 501.019 81.7324C501.019 74.1709 501.047 66.6377 501.104 59.1328C501.161 51.6279 501.189 44.0664 501.189 36.4482C501.189 35.2588 501.161 34.0835 501.104 32.9224C501.047 31.7612 501.019 30.5859 501.019 29.3965C501.019 29.1133 501.033 28.7876 501.062 28.4194C501.09 28.0229 501.161 27.6689 501.274 27.3574C501.387 27.0176 501.557 26.7344 501.784 26.5078C502.01 26.2813 502.322 26.168 502.718 26.168C503.115 26.168 503.525 26.2246 503.95 26.3379C504.403 26.4512 504.814 26.6211 505.182 26.8477C505.579 27.0742 505.918 27.3574 506.202 27.6973C506.513 28.0088 506.74 28.377 506.881 28.8018C507.023 29.3115 507.08 29.8638 507.051 30.4585C507.051 31.0249 507.051 31.6055 507.051 32.2002C507.193 39.7334 507.292 47.21 507.349 54.6299C507.434 62.0498 507.476 69.5264 507.476 77.0596C507.476 77.9092 507.476 78.7588 507.476 79.6084C507.504 80.458 507.561 81.3076 507.646 82.1572C508.411 82.1289 509.345 82.0015 510.45 81.7749C511.554 81.5483 512.659 81.2651 513.763 80.9253C514.896 80.5571 515.958 80.1465 516.949 79.6934C517.94 79.2402 518.719 78.7588 519.286 78.249C519.541 77.9941 519.81 77.7393 520.093 77.4844C520.376 77.2012 520.73 77.0596 521.155 77.0596C521.523 77.0596 521.905 77.187 522.302 77.4419C522.727 77.6968 523.109 78.0225 523.449 78.4189C523.789 78.7871 524.072 79.1836 524.298 79.6084C524.525 80.0332 524.638 80.4297 524.638 80.7979ZM551.146 80.8828C551.146 81.7041 550.934 82.4829 550.509 83.2192C550.084 83.9272 549.503 84.4512 548.767 84.791C548.541 84.9043 547.988 85.0176 547.11 85.1309C546.232 85.2158 545.284 85.3008 544.264 85.3857C543.245 85.4707 542.268 85.5557 541.333 85.6406C540.427 85.7256 539.79 85.7822 539.421 85.8105C539.336 86.292 539.11 86.6318 538.742 86.8301C538.374 87 537.977 87.085 537.552 87.085C537.071 87.085 536.519 87.0142 535.896 86.8726C535.272 86.731 534.72 86.5752 534.239 86.4053C532.964 86.5752 531.676 86.7593 530.373 86.9575C529.07 87.1558 527.753 87.2549 526.422 87.2549C525.403 87.2549 524.893 86.7734 524.893 85.8105C524.893 84.8477 525.162 84.1113 525.7 83.6016C526.238 83.0918 526.89 82.7095 527.654 82.4546C528.419 82.1997 529.24 82.0298 530.118 81.9448C530.996 81.8599 531.775 81.7607 532.455 81.6475C532.313 73.6045 532.157 65.6182 531.987 57.6885C531.846 49.7588 531.775 41.7725 531.775 33.7295C530.614 33.8145 529.481 33.8994 528.376 33.9844C527.272 34.041 526.167 34.0693 525.063 34.0693C524.836 34.0693 524.596 34.0693 524.341 34.0693C524.086 34.041 523.845 33.9985 523.619 33.9419C523.42 33.8569 523.25 33.7437 523.109 33.6021C522.939 33.4321 522.854 33.1914 522.854 32.8799C522.854 32.3418 522.967 31.8745 523.194 31.478C523.42 31.0532 523.718 30.7134 524.086 30.4585C524.482 30.1753 524.907 29.9487 525.36 29.7788C525.813 29.6089 526.281 29.4814 526.762 29.3965C527.98 29.1699 529.212 28.9858 530.458 28.8442C531.732 28.6743 532.993 28.5186 534.239 28.377C535.513 28.207 536.773 28.0371 538.02 27.8672C539.294 27.6973 540.554 27.4707 541.8 27.1875C542.99 26.9326 544.179 26.6069 545.369 26.2104C546.558 25.7856 547.776 25.5732 549.022 25.5732C549.702 25.5732 550.155 25.8281 550.381 26.3379C550.608 26.8193 550.721 27.3574 550.721 27.9521C550.721 28.4336 550.665 28.9009 550.551 29.354C550.466 29.7788 550.268 30.1895 549.957 30.5859C549.787 30.8125 549.404 31.0391 548.81 31.2656C548.243 31.4639 547.549 31.6479 546.728 31.8179C545.935 31.9878 545.071 32.1577 544.137 32.3276C543.23 32.4692 542.338 32.6108 541.46 32.7524C540.611 32.8657 539.832 32.9648 539.124 33.0498C538.416 33.1348 537.892 33.1914 537.552 33.2197C537.864 37.1562 538.076 41.0928 538.189 45.0293C538.331 48.9658 538.444 52.9023 538.529 56.8389C538.614 60.7754 538.699 64.7119 538.784 68.6484C538.869 72.585 539.025 76.5215 539.251 80.458C540.866 80.2031 542.494 79.9624 544.137 79.7358C545.779 79.481 547.436 79.3535 549.107 79.3535C549.588 79.3535 550.042 79.4668 550.466 79.6934C550.919 79.8916 551.146 80.2881 551.146 80.8828ZM581.435 83.5166C581.435 84.0264 581.378 84.5361 581.265 85.0459C581.18 85.5273 581.01 85.9663 580.755 86.3628C580.528 86.731 580.217 87.0283 579.82 87.2549C579.424 87.4814 578.914 87.5947 578.291 87.5947C577.526 87.5947 576.903 87.4248 576.422 87.085C575.969 86.7734 575.544 86.3203 575.147 85.7256C574.609 84.9609 574.128 84.083 573.703 83.0918C573.278 82.0723 572.896 81.0386 572.556 79.9907C572.216 78.9146 571.891 77.8525 571.579 76.8047C571.296 75.7285 571.013 74.7373 570.729 73.8311C569.2 69.0732 567.77 64.3296 566.439 59.6001C565.136 54.8706 563.734 50.127 562.233 45.3691C562.092 51.5146 561.979 57.6318 561.894 63.7207C561.837 69.8096 561.809 75.9268 561.809 82.0723C561.809 82.3838 561.794 82.7378 561.766 83.1343C561.738 83.5308 561.667 83.9131 561.554 84.2812C561.44 84.6211 561.256 84.9185 561.001 85.1733C560.775 85.4282 560.449 85.5557 560.024 85.5557C558.58 85.5557 557.476 85.1733 556.711 84.4087C555.975 83.6157 555.606 82.4971 555.606 81.0527C555.606 73.0947 555.621 65.2075 555.649 57.3911C555.677 49.5747 555.691 41.7158 555.691 33.8145V27.7822C555.691 27.1309 555.805 26.5928 556.031 26.168C556.286 25.7148 556.824 25.4883 557.646 25.4883C558.212 25.4883 558.792 25.5732 559.387 25.7432C559.982 25.8848 560.506 26.1113 560.959 26.4229C561.44 26.7344 561.823 27.145 562.106 27.6548C562.417 28.1362 562.573 28.7168 562.573 29.3965C563.763 31.6621 564.754 33.9985 565.547 36.4058C566.368 38.813 567.161 41.2344 567.926 43.6699C569.03 47.21 570.121 50.75 571.197 54.29C572.273 57.8301 573.363 61.3984 574.468 64.9951C574.298 59.6426 574.114 54.3042 573.916 48.98C573.746 43.6274 573.392 38.2891 572.854 32.9648C572.712 31.8037 572.542 30.6709 572.344 29.5664C572.174 28.4619 572.089 27.3291 572.089 26.168C572.089 25.5732 572.287 25.1768 572.684 24.9785C573.08 24.752 573.533 24.6387 574.043 24.6387C574.921 24.6387 575.671 24.7095 576.294 24.8511C576.917 24.9927 577.441 25.2334 577.866 25.5732C578.291 25.9131 578.617 26.3804 578.843 26.9751C579.07 27.5415 579.254 28.2637 579.396 29.1416C579.565 30.6709 579.693 32.2144 579.778 33.772C579.891 35.3013 579.99 36.8164 580.075 38.3174C580.33 42.1123 580.514 45.8789 580.627 49.6172C580.741 53.3555 580.84 57.1221 580.925 60.917C581.01 64.6836 581.109 68.4502 581.222 72.2168C581.364 75.9551 581.435 79.7217 581.435 83.5166ZM620.984 56.499C620.984 57.4053 620.814 58.1133 620.474 58.623C620.163 59.1045 619.738 59.4727 619.2 59.7275C618.662 59.9824 618.053 60.1382 617.373 60.1948C616.722 60.2515 616.056 60.2939 615.376 60.3223C616.906 61.9082 618.124 63.7349 619.03 65.8022C619.936 67.8696 620.389 70.0078 620.389 72.2168C620.389 74.3975 620.021 76.5356 619.285 78.6313C618.548 80.6987 617.5 82.5396 616.141 84.1538C614.782 85.7681 613.153 87.0708 611.256 88.062C609.358 89.0532 607.249 89.5488 604.926 89.5488C603.085 89.5488 601.429 89.1948 599.956 88.4868C598.483 87.7788 597.167 86.8159 596.005 85.5981C594.844 84.3521 593.825 82.9219 592.947 81.3076C592.069 79.665 591.318 77.9233 590.695 76.0825C590.072 74.2134 589.548 72.2876 589.124 70.3052C588.727 68.3228 588.401 66.3828 588.146 64.4854C587.92 62.5879 587.75 60.7896 587.637 59.0903C587.552 57.3628 587.509 55.8193 587.509 54.46C587.509 52.874 587.58 51.1748 587.722 49.3623C587.892 47.5498 588.161 45.7231 588.529 43.8823C588.897 42.0415 589.393 40.2432 590.016 38.4873C590.639 36.7314 591.432 35.1172 592.395 33.6445C593.357 32.1436 594.49 30.8408 595.793 29.7363C597.124 28.6035 598.667 27.7539 600.423 27.1875C601.075 26.9609 601.726 26.791 602.377 26.6777C603.029 26.5645 603.68 26.5078 604.332 26.5078C607.164 26.5078 609.514 27.2725 611.383 28.8018C613.281 30.3311 614.697 32.3984 615.631 35.0039C615.801 35.4004 615.943 35.811 616.056 36.2358C616.169 36.6323 616.226 37.043 616.226 37.4678C616.226 37.9775 616.042 38.3032 615.674 38.4448C615.306 38.5864 614.923 38.6572 614.527 38.6572C613.507 38.6572 612.686 38.4731 612.063 38.105C611.44 37.7368 610.916 37.2837 610.491 36.7456C610.066 36.2075 609.684 35.6128 609.344 34.9614C609.033 34.3101 608.679 33.7153 608.282 33.1772C607.886 32.6392 607.39 32.186 606.795 31.8179C606.201 31.4497 605.408 31.2656 604.417 31.2656C603 31.2656 601.754 31.6621 600.678 32.4551C599.602 33.248 598.667 34.2959 597.875 35.5986C597.082 36.873 596.416 38.3315 595.878 39.9741C595.34 41.5884 594.915 43.2168 594.604 44.8594C594.292 46.4736 594.065 48.0312 593.924 49.5322C593.782 51.0332 593.711 52.3076 593.711 53.3555C593.711 54.46 593.782 55.9893 593.924 57.9434C594.065 59.8975 594.292 62.0215 594.604 64.3154C594.943 66.6094 595.382 68.9458 595.92 71.3247C596.487 73.6753 597.181 75.8135 598.002 77.7393C598.852 79.665 599.843 81.2368 600.976 82.4546C602.137 83.6724 603.482 84.2812 605.011 84.2812C606.342 84.2812 607.546 83.8989 608.622 83.1343C609.698 82.3413 610.604 81.3643 611.341 80.2031C612.105 79.0137 612.686 77.7534 613.083 76.4224C613.479 75.063 613.677 73.8027 613.677 72.6416C613.677 71.5371 613.521 70.4468 613.21 69.3706C612.898 68.2661 612.459 67.2324 611.893 66.2695C611.327 65.2783 610.647 64.3721 609.854 63.5508C609.061 62.7012 608.183 61.9932 607.22 61.4268C606.88 61.2002 606.498 61.002 606.073 60.832C605.677 60.6338 605.266 60.4639 604.841 60.3223C604.615 60.2939 604.176 60.2656 603.524 60.2373C602.873 60.1807 602.208 60.1099 601.528 60.0249C600.848 59.9399 600.239 59.8125 599.701 59.6426C599.163 59.4443 598.894 59.1611 598.894 58.793C598.894 58.2832 598.979 57.7593 599.149 57.2212C599.319 56.6831 599.56 56.2017 599.871 55.7769C600.211 55.3521 600.593 54.998 601.018 54.7148C601.471 54.4316 601.981 54.29 602.547 54.29C603.369 54.29 604.247 54.4175 605.181 54.6724C606.144 54.8989 606.994 55.168 607.73 55.4795C609.146 55.3945 610.548 55.3096 611.936 55.2246C613.323 55.1113 614.697 54.9697 616.056 54.7998C616.538 54.7432 617.005 54.6724 617.458 54.5874C617.939 54.5024 618.435 54.46 618.945 54.46C619.625 54.46 620.134 54.6157 620.474 54.9272C620.814 55.2388 620.984 55.7627 620.984 56.499Z" fill="black"/>
</g>
<defs>
<filter id="filter0_d_11_2" x="15.1631" y="24.6387" width="609.821" height="72.9102" filterUnits="userSpaceOnUse" color-interpolation-filters="sRGB">
<feFlood flood-opacity="0" result="BackgroundImageFix"/>
<feColorMatrix in="SourceAlpha" type="matrix" values="0 0 0 0 0 0 0 0 0 0 0 0 0 0 0 0 0 0 127 0" result="hardAlpha"/>
<feOffset dy="4"/>
<feGaussianBlur stdDeviation="2"/>
<feComposite in2="hardAlpha" operator="out"/>
<feColorMatrix type="matrix" values="0 0 0 0 0.766667 0 0 0 0 0.766667 0 0 0 0 0.766667 0 0 0 0.25 0"/>
<feBlend mode="normal" in2="BackgroundImageFix" result="effect1_dropShadow_11_2"/>
<feBlend mode="normal" in="SourceGraphic" in2="effect1_dropShadow_11_2" result="shape"/>
</filter>
</defs>
</svg>
